<svg xmlns="http://www.w3.org/2000/svg" xmlns:xlink="http://www.w3.org/1999/xlink" fill="none" version="1.1" width="40" height="40" viewBox="0 0 40 40">
  <defs>
    <clipPath id="master_svg0_4683_04102">
      <rect x="16.000225067138672" y="13.000237464904785" width="7.999424934387207" height="13.999724388122559" rx="0"/>
    </clipPath>
  </defs>
  <g>
    <g>
      <rect x="0" y="0" width="40" height="40" rx="10" fill="#FFFFFF" fill-opacity="1"/>
      <rect x="0.5" y="0.5" width="39" height="39" rx="9.5" fill-opacity="0" stroke-opacity="1" stroke="#5966DD" fill="none" stroke-width="1"/>
    </g>
    <g clip-path="url(#master_svg0_4683_04102)">
      <g>
        <path d="M21.23560464111328,16.91267151495361C21.36576464111328,16.684872514953614,
          21.36576464111328,16.315530514953615,21.23560464111328,16.087731514953614C21.
          10543464111328,15.859938614953613,20.894404641113283,15.859932814953613,
          20.76423464111328,16.087714514953614L20.76420464111328,16.087658514953613L18.
          76435084111328,19.587592514953613L19.000056641113282,20.000092514953614L18.
          76435084111328,20.412602514953612L20.76420464111328,23.912532514953615L20.
          76423464111328,23.912482514953613C20.894404641113283,24.140262514953612,
          21.10543464111328,24.140252514953612,21.23560464111328,23.912472514953613C21.
          36576464111328,23.684682514953614,21.36576464111328,23.315322514953614,21.23560464111328,
          23.087532514953615L21.23557464111328,23.087592514953613L19.47138664111328,20.000092514953614L21.
          23557464111328,16.912615514953615L21.23560464111328,16.91267151495361ZM19.00000364111328,
          20.000132514953613L18.76431764111328,19.587662514953614C18.634153641113283,19.815462514953612,
          18.634153641113283,20.184802514953613,18.76431764111328,20.412602514953612L19.00000364111328,
          20.000132514953613Z" fill-rule="evenodd" fill="#121826" fill-opacity="1"
        />
        <path d="M20.80147464111328,16.664611514953613Q20.89541464111328,16.500201514953613,
          20.80147464111328,16.335791514953613Q20.84780464111328,16.41687751495361,
          20.999904641113282,16.416882514953613Q21.152014641113283,16.416887514953615,
          21.19835464111328,16.335793514953615L20.76494464111328,17.094222514953614L20.
          330434641113282,16.336346514953615L20.76420464111328,16.087658514953613L21.
          19833464111328,16.335718514953612L19.198477641113282,19.835652514953612L18.
          76435084111328,19.587592514953613L19.198477641113282,19.339532514953614L19.
          57592564111328,20.000092514953614L19.198478641113283,20.660662514953614L18.
          76435084111328,20.412602514953612L19.198477641113282,20.164542514953613L21.
          19833464111328,23.664472514953612L20.76420464111328,23.912532514953615L20.
          330624641113282,23.663512514953613L20.76531464111328,22.906642514953614L21.
          19834464111328,23.664402514953615Q21.15200464111328,23.58331251495361,
          20.999904641113282,23.58331251495361Q20.84781464111328,23.58331251495361,
          20.80148464111328,23.66439251495361Q20.89542464111328,23.500002514953614,
          20.80148464111328,23.335602514953614L21.23560464111328,23.087532514953615L21.
          67006464111328,23.33501251495361L21.23624464111328,24.096592514953613L18.
          89551864111328,20.000092514953614L21.235084641113282,15.905649414953613L21.
          669484641113282,16.664190514953614L21.23560464111328,16.91267151495361L20.
          80147464111328,16.664611514953613ZM21.236094641113283,17.919642514953612L20.
          801684641113283,17.161092514953612L21.23557464111328,16.912615514953615L21.
          66969464111328,17.160672514953614L19.90551464111328,20.248152514953613L19.
          47138664111328,20.000092514953614L19.90551464111328,19.752042514953615L21.
          66970464111328,22.839532514953614L21.23557464111328,23.087592514953613L20.
          80111464111328,22.840112514953613L21.23491464111328,22.078552514953614L21.
          66972464111328,22.839472514953613Q22.04717464111328,23.500002514953614,21.
          66972464111328,24.16054251495361Q21.42813464111328,24.583302514953616,20.
          99993464111328,24.58331251495361Q20.57171464111328,24.583322514953615,20.
          33012464111328,24.16056251495361L20.76423464111328,23.912482514953613L21.
          197814641113283,24.161492514953615L20.76310464111328,24.918412514953616L18.
          188482641113282,20.412602514953612L18.56592864111328,19.752032514953612L19.
          000056641113282,20.000092514953614L18.56593064111328,20.248152514953613L18.
          188482641113282,19.587592514953613L20.76347464111328,15.081110514953613L21.
          198004641113283,15.839027014953613L20.76423464111328,16.087714514953614L20.
          33012464111328,15.839634614953614Q20.57171464111328,15.416867514953614,
          20.99993464111328,15.416882514953613Q21.42815464111328,15.416897514953613,
          21.66972464111328,15.839671914953612Q22.04715464111328,16.500201514953613,
          21.66972464111328,17.16073251495361L21.236094641113283,17.919642514953612ZM18.
          56587664111328,20.248192514953615L18.33019064111328,19.835722514953613L18.
          76431764111328,19.587662514953614L19.19844764111328,19.835712514953613Q19.
          10450164111328,20.000132514953613,19.19844764111328,20.164552514953613L18.
          76431764111328,20.412602514953612L18.33019064111328,20.164542514953613L18.
          56587664111328,19.752072514953614L19.00000364111328,20.000132514953613L18.
          56587664111328,20.248192514953615ZM19.575872641113282,20.000132514953613L18.
          76431224111328,21.420432514953614L18.33018764111328,20.660662514953614Q17.
          95277264111328,20.000132514953613,18.33018764111328,19.33960251495361L18.
          76431214111328,18.579822514953612L19.434131641113282,19.752072514953614L19.
          575872641113282,20.000132514953613Z" fill="#5966DD" fill-opacity="1"
        />
      </g>
    </g>
  </g>
</svg>
