<svg xmlns="http://www.w3.org/2000/svg" xmlns:xlink="http://www.w3.org/1999/xlink" fill="none" version="1.1" width="59" height="21" viewBox="0 0 59 21"><g><rect x="0" y="0" width="59" height="21" rx="4" fill="#38B781" fill-opacity="1"/><g><g><path d="M13.5,3C17.64,3,21,6.359999999999999,21,10.5C21,14.64,17.64,18,13.5,18C9.36,18,6,14.64,6,10.5C6,6.359999999999999,9.36,3,13.5,3ZM14.25,10.5L14.25,7.5L12.75,7.5L12.75,10.5L10.5,10.5L13.5,13.5L16.5,10.5L14.25,10.5Z" fill="#FFFFFF" fill-opacity="1"/></g></g><g><path d="M27.156,9.014Q28.766,9.672,30.082,10.568L29.564,11.379999999999999Q28.122,10.302,26.666,9.728L27.156,9.014ZM28.444,7.054Q30.026,7.698,31.328,8.622L30.81,9.42Q29.368000000000002,8.328,27.968,7.768L28.444,7.054ZM32.308,7.054L33.302,7.054L33.302,9.994Q33.26,11.1,33.022,12.108L38.230000000000004,12.108L38.230000000000004,13.088L32.686,13.088Q32.49,13.536,32.378,13.732Q35.43,15.09,37.922,16.672L37.236000000000004,17.428Q34.59,15.748,31.874,14.488L31.65,14.768Q30.11,16.433999999999997,26.652,17.358L26.078,16.462Q29.55,15.566,30.936,14.068Q31.328,13.592,31.566,13.088L26.008,13.088L26.008,12.108L31.972,12.108Q32.266,11.142,32.308,9.994L32.308,7.054ZM26.54,5.388L37.208,5.388L37.208,6.018Q36.914,7.2219999999999995,36.382,8.51L35.43,8.244Q35.85,7.418,36.158,6.3260000000000005L26.54,6.3260000000000005L26.54,5.388ZM40.288,5.15L44.501999999999995,5.15L44.501999999999995,9.518L43.158,9.518L43.158,11.744L44.796,11.744L44.796,12.696L43.158,12.696L43.158,15.244Q43.998000000000005,14.992,44.754000000000005,14.74L44.754000000000005,15.734Q42.64,16.462,39.798,17.078L39.504,16.112000000000002L40.204,15.972L40.204,10.904L41.1,10.904L41.1,15.776Q41.856,15.58,42.22,15.496L42.22,9.518L40.288,9.518L40.288,5.15ZM43.536,8.58L43.536,6.088L41.268,6.088L41.268,8.58L43.536,8.58ZM46.658,8.062000000000001Q46.294,9.294,45.916,10.106L45.076,9.574Q45.944,7.684,46.35,5.36L47.232,5.542Q47.106,6.214,46.91,7.082L48.338,7.082L48.338,4.604L49.29,4.604L49.29,7.082L51.544,7.082L51.544,8.062000000000001L49.275999999999996,8.062000000000001Q49.234,9.686,49.08,10.792L52.062,10.792L52.062,11.758L49.416,11.758Q49.962,14.824,52.468,16.546L51.908,17.428Q49.458,15.594,48.730000000000004,12.556Q48.562,13.186,48.254000000000005,14.012Q47.288,16.154,45.117999999999995,17.386L44.6,16.573999999999998Q46.686,15.342,47.525999999999996,13.298Q47.806,12.5,47.96,11.758L45.216,11.758L45.216,10.792L48.114000000000004,10.792Q48.282,9.532,48.324,8.062000000000001L46.658,8.062000000000001Z" fill="#FFFFFF" fill-opacity="1"/></g></g></svg>
