<svg xmlns="http://www.w3.org/2000/svg" xmlns:xlink="http://www.w3.org/1999/xlink" fill="none" version="1.1" width="59" height="21" viewBox="0 0 59 21"><g><rect x="0" y="0" width="59" height="21" rx="4" fill="#DF2040" fill-opacity="1"/><g><g transform="matrix(1,0,0,-1,0,36)"><path d="M13.5,18C17.64,18,21,21.36,21,25.5C21,29.64,17.64,33,13.5,33C9.36,33,6,29.64,6,25.5C6,21.36,9.36,18,13.5,18ZM14.25,25.5L14.25,22.5L12.75,22.5L12.75,25.5L10.5,25.5L13.5,28.5L16.5,25.5L14.25,25.5Z" fill="#FFFFFF" fill-opacity="1"/></g></g><g><path d="M27.156,9.014Q28.766,9.672,30.082,10.568L29.564,11.379999999999999Q28.122,10.302,26.666,9.728L27.156,9.014ZM28.444,7.054Q30.026,7.698,31.328,8.622L30.81,9.42Q29.368000000000002,8.328,27.968,7.768L28.444,7.054ZM32.308,7.054L33.302,7.054L33.302,9.994Q33.26,11.1,33.022,12.108L38.230000000000004,12.108L38.230000000000004,13.088L32.686,13.088Q32.49,13.536,32.378,13.732Q35.43,15.09,37.922,16.672L37.236000000000004,17.428Q34.59,15.748,31.874,14.488L31.65,14.768Q30.11,16.433999999999997,26.652,17.358L26.078,16.462Q29.55,15.566,30.936,14.068Q31.328,13.592,31.566,13.088L26.008,13.088L26.008,12.108L31.972,12.108Q32.266,11.142,32.308,9.994L32.308,7.054ZM26.54,5.388L37.208,5.388L37.208,6.018Q36.914,7.2219999999999995,36.382,8.51L35.43,8.244Q35.85,7.418,36.158,6.3260000000000005L26.54,6.3260000000000005L26.54,5.388ZM48.422,11.001999999999999L48.422,16.098Q49.234,15.804,50.032,15.272L50.214,16.195999999999998Q49.010000000000005,16.881999999999998,47.512,17.316000000000003L47.092,16.448Q47.498000000000005,16.28,47.498000000000005,16L47.498000000000005,11.001999999999999L46.546,11.001999999999999L46.546,10.078L47.498000000000005,10.078L47.498000000000005,4.589999L48.422,4.589999L48.422,10.078L52.314,10.078L52.314,11.001999999999999L50.466,11.001999999999999Q50.620000000000005,14.488,52.495999999999995,16.77L51.81,17.456Q49.78,14.838,49.626000000000005,11.001999999999999L48.422,11.001999999999999ZM43.942,9.154L43.760000000000005,11.436L46.111999999999995,11.436Q46.111999999999995,14.81,45.93,16Q45.72,17.189999999999998,44.32,17.274Q44.012,17.274,43.312,17.218L43.088,16.322Q43.760000000000005,16.378,44.11,16.378Q44.894,16.378,45.019999999999996,15.622Q45.146,14.824,45.146,12.36L42.766,12.36L43.074,8.216000000000001L45.076,8.216000000000001L45.076,6.032L42.906,6.032L42.906,5.1080000000000005L46.056,5.1080000000000005L46.056,9.154L43.942,9.154ZM40.638,4.799999Q41.856,5.864,42.598,6.802L41.897999999999996,7.502Q41.239999999999995,6.62,39.952,5.458L40.638,4.799999ZM40.33,8.146Q41.422,9.097999999999999,42.275999999999996,10.176L41.59,10.862Q40.862,9.882,39.644,8.804L40.33,8.146ZM42.248000000000005,12.178Q41.506,14.908,40.638,17.232L39.728,16.854Q40.68,14.432,41.379999999999995,11.841999999999999L42.248000000000005,12.178ZM52.426,5.934Q51.138000000000005,8.132,49.332,9.196L48.828,8.482Q50.507999999999996,7.46,51.726,5.346L52.426,5.934Z" fill="#FFFFFF" fill-opacity="1"/></g></g></svg>
